<?xml version="1.0" encoding="utf-8"?>
<!-- Generator: Adobe Illustrator 15.0.0, SVG Export Plug-In . SVG Version: 6.00 Build 0)  -->
<!DOCTYPE svg PUBLIC "-//W3C//DTD SVG 1.1//EN" "http://www.w3.org/Graphics/SVG/1.1/DTD/svg11.dtd">
<svg version="1.1" id="레이어_1" xmlns="http://www.w3.org/2000/svg" xmlns:xlink="http://www.w3.org/1999/xlink" x="0px"
	 y="0px" width="48px" height="48px" viewBox="0 0 48 48" enable-background="new 0 0 48 48" xml:space="preserve">
<g>
	<path fill-rule="evenodd" clip-rule="evenodd" d="M-401.636,0.846c-3.468,5.521-1.968,5.295,0.75,10.498
		c-2.723,2.348-4.083-1.471-6-2.25c-2.366,0.634-2.133,3.867-4.5,4.5c0.071,3.504,5.062,3.244,3,6.749
		c-6.002-2.11-5.666-3.12-10.499,0.75c-5.171-6.149-17.213-11.476-11.999-23.247c-39.95-11.961-43.722,55.896-3.75,49.494
		c13.266-2.125,24.187-17.713,33.746-29.246c14.264-17.211,41.496-43.855,65.242-19.498c18.995,19.484,4.157,64.111-29.996,56.243
		c-3.424-0.789-3.907-2.645-8.999-4.499c-11.684,5.141-18.837-4.418-24.747-9.75c4.569-7.179,10.841-12.656,15.748-19.497
		c6.796,4.597,18.025,11.421,13.498,22.497c4.924,3.43,8.227,4.52,14.998,3.75c28.82-3.278,26.865-54.367-5.999-50.994
		c-18.867,1.937-32.96,28-44.244,39.745c-7,7.286-16.975,16.593-26.247,18.748c-23.204,5.395-42.33-14.066-38.995-38.995
		c2.375-17.752,23.882-33.531,44.245-23.997C-414.761-13.571-408.47-3.247-401.636,0.846z M-380.638,43.59
		c1.738,0.239,2.879-0.12,3.749-0.75c0.172-2.671-1.078-3.92-3.749-3.749C-381.664,40.049-381.664,42.631-380.638,43.59z"/>
	<path fill-rule="evenodd" clip-rule="evenodd" fill="#FFFFFF" d="M-380.638,39.091c2.671-0.171,3.921,1.078,3.749,3.749
		c-0.87,0.63-2.011,0.989-3.749,0.75C-381.664,42.631-381.664,40.049-380.638,39.091z"/>
	<g>
		<path fill="#231815" d="M-474.608,86.264V69.62h4.602v4.861h5.158V69.62h4.564v16.644H-474.608z M-464.849,78.359h-5.158v4.026
			h5.158V78.359z M-449.578,103.965v-9.686h-19.111v-3.952h23.75v13.638H-449.578z M-449.541,88.806v-7.607h-2.802v7.607h-4.564
			V68.896h4.564v8.405h2.802v-9.129h4.602v20.633H-449.541z"/>
		<path fill="#231815" d="M-433.498,86.746V70.492h16.755v16.254H-433.498z M-421.344,74.37h-7.515v8.517h7.515V74.37z
			 M-428.673,102.722V90.513h4.676v8.294h18.703v3.915H-428.673z M-406.296,82.72v11.226h-4.62V68.173h4.62v10.632h5.474v3.915
			H-406.296z"/>
		<path fill="#231815" d="M-394.206,86.876v-3.544h14.25v-2.653h-9.277V68.674h4.602v2.69h14.102v-2.69h4.602v12.005h-9.352v2.653
			h14.287v3.544H-394.206z M-389.233,103.482v-8.869h18.518v-2.041h-18.518v-3.544h23.193v8.776h-18.518v2.134h19.39v3.544H-389.233
			z M-370.53,74.778h-14.102v2.394h14.102V74.778z"/>
		<path fill="#231815" d="M-353.317,99.178V95.3h33.213v3.878H-353.317z M-348.419,89.492V71.327h23.564v3.841h-18.889v3.266h17.868
			v3.841h-17.868v3.377h19.464v3.841H-348.419z"/>
	</g>
	<g>
		<path fill="#231815" d="M-424.996,117.089c-0.758,0-1.366-0.293-1.824-0.879s-0.686-1.382-0.686-2.388
			c0-1.025,0.228-1.825,0.684-2.4c0.456-0.574,1.064-0.861,1.826-0.861c0.755,0,1.361,0.291,1.816,0.871
			c0.456,0.582,0.684,1.378,0.684,2.391s-0.228,1.81-0.684,2.393S-424.241,117.089-424.996,117.089z M-424.996,111.601
			c-0.375,0-0.683,0.198-0.925,0.593c-0.243,0.396-0.364,0.942-0.364,1.639c0,0.674,0.123,1.213,0.369,1.619
			c0.246,0.404,0.553,0.607,0.92,0.607c0.361,0,0.667-0.204,0.916-0.613c0.249-0.408,0.374-0.946,0.374-1.613
			c0-0.69-0.121-1.234-0.361-1.633C-424.309,111.8-424.619,111.601-424.996,111.601z M-420.157,114.608v4.771h-1.216v-9.419h1.216
			v3.618h1.475v1.03H-420.157z"/>
		<path fill="#231815" d="M-412.683,117.089c-0.749,0-1.349-0.295-1.802-0.884s-0.679-1.384-0.679-2.383
			c0-1.016,0.226-1.813,0.676-2.393s1.052-0.869,1.804-0.869c0.749,0,1.347,0.292,1.794,0.877c0.448,0.584,0.671,1.379,0.671,2.385
			c0,1.009-0.223,1.806-0.669,2.391C-411.332,116.797-411.931,117.089-412.683,117.089z M-412.683,111.601
			c-0.375,0-0.682,0.2-0.923,0.601s-0.361,0.944-0.361,1.631c0,0.677,0.124,1.218,0.371,1.621s0.552,0.605,0.913,0.605
			c0.358,0,0.661-0.199,0.908-0.598c0.248-0.399,0.371-0.942,0.371-1.629s-0.12-1.23-0.359-1.631S-412.308,111.601-412.683,111.601z
			 M-408.796,119.379v-9.419h1.211v9.419H-408.796z"/>
		<path fill="#231815" d="M-397.093,116.84c-0.638,0.088-1.2,0.132-1.685,0.132h-4.58v-1.03h1.353l-0.122-3.521h1.201l0.059,3.521
			h1.26l0.063-3.521h1.201l-0.142,3.521c0.596,0,1.025-0.034,1.289-0.103L-397.093,116.84z M-402.996,111.771v-1.021h5.503v1.021
			H-402.996z M-395.604,114.662v4.717h-1.23v-9.419h1.24v3.672h1.46v1.03H-395.604z"/>
		<path fill="#231815" d="M-388.183,117.089c-0.749,0-1.349-0.295-1.802-0.884s-0.679-1.384-0.679-2.383
			c0-1.016,0.226-1.813,0.676-2.393s1.052-0.869,1.804-0.869c0.749,0,1.347,0.292,1.794,0.877c0.448,0.584,0.671,1.379,0.671,2.385
			c0,1.009-0.223,1.806-0.669,2.391C-386.832,116.797-387.431,117.089-388.183,117.089z M-388.183,111.601
			c-0.375,0-0.682,0.2-0.923,0.601s-0.361,0.944-0.361,1.631c0,0.677,0.124,1.218,0.371,1.621s0.552,0.605,0.913,0.605
			c0.358,0,0.661-0.199,0.908-0.598c0.248-0.399,0.371-0.942,0.371-1.629s-0.12-1.23-0.359-1.631S-387.808,111.601-388.183,111.601z
			 M-384.296,119.379v-9.419h1.211v9.419H-384.296z"/>
		<path fill="#231815" d="M-378.745,117.978v-1.016h8.74v1.016H-378.745z M-377.427,115.351v-4.683h1.23v1.421h3.643v-1.421h1.221
			v4.683H-377.427z M-372.554,113.119h-3.643v1.211h3.643V113.119z"/>
	</g>
</g>
<rect x="-478.875" y="67.125" fill-rule="evenodd" clip-rule="evenodd" fill="none" width="258.5" height="45"/>
<text transform="matrix(1 0 0 1 -509.875 192.125)" fill="#231815" font-family="'MalgunGothicBold'" font-size="38" letter-spacing="2">백만볼트</text>
<text transform="matrix(1 0 0 1 -440.875 160.5)" fill="#231815" font-family="'MalgunGothicBold'" font-size="10" letter-spacing="2">아이파이브</text>
<path fill-rule="evenodd" clip-rule="evenodd" fill="#FFEE58" d="M23.181,16.938c-1.141,1.819-0.646,1.744,0.249,3.459
	c-0.898,0.772-1.346-0.485-1.977-0.742c-0.78,0.209-0.703,1.273-1.482,1.483c0.023,1.155,1.667,1.068,0.989,2.222
	c-1.978-0.694-1.866-1.027-3.459,0.248c-1.704-2.026-5.671-3.781-3.953-7.659C0.387,12.01-0.856,34.363,12.312,32.255
	c4.37-0.698,7.968-5.833,11.118-9.634c4.694-5.67,13.668-14.447,21.488-6.424c6.258,6.417,1.371,21.12-9.879,18.53
	c-1.129-0.261-1.289-0.873-2.965-1.484c-3.848,1.694-6.207-1.455-8.151-3.211c1.502-2.364,3.569-4.169,5.184-6.423
	c2.241,1.515,5.939,3.763,4.448,7.409c1.622,1.131,2.711,1.49,4.94,1.236c9.496-1.078,8.849-17.91-1.975-16.799
	c-6.217,0.638-10.86,9.224-14.575,13.094c-2.307,2.4-5.591,5.465-8.646,6.178C5.656,36.503-0.644,30.093,0.455,21.88
	c0.783-5.849,7.866-11.046,14.576-7.906C18.86,12.188,20.931,15.591,23.181,16.938z M30.098,31.019
	c0.569,0.08,0.947-0.038,1.235-0.247c0.058-0.879-0.354-1.29-1.235-1.233C29.76,29.852,29.76,30.705,30.098,31.019z"/>
</svg>
